<?xml version="1.0" encoding="utf-8"?>
<!-- Generator: Adobe Illustrator 18.1.1, SVG Export Plug-In . SVG Version: 6.00 Build 0)  -->
<svg version="1.1" id="Layer_1" xmlns="http://www.w3.org/2000/svg" xmlns:xlink="http://www.w3.org/1999/xlink" x="0px" y="0px"
	 viewBox="0 0 800 356.1" enable-background="new 0 0 800 356.1" xml:space="preserve">
<g>
	<g>
		<path fill="#27AAE1" d="M15.7,214.6h13.5l43.3-114.5H57V89.8h55v10.3H96.4l43.3,114.5h13.5v10.3h-42.1v-10.3H127l-14.2-38.2H55.5
			l-14.2,38.2h16.4v10.3H15.7V214.6z M109.1,166.4L84.3,99.1l-25,67.3H109.1z"/>
		<path fill="#27AAE1" d="M168,214.6h18.1V100.1H168V89.8h50.7c29.4,0,47.4,15.6,47.4,38.4c0,18.9-12.5,31.8-30.6,37.2l31.6,49.3
			h16.6v10.3h-24.6l-35.9-57.1c-2.5,0.2-5.1,0.4-7.8,0.4c-5.7,0-13.1-0.2-17.7-0.4v46.8h18.1v10.3H168V214.6z M254.4,128.4
			c0-18.3-14.4-28.3-36.3-28.3h-20.3v57.5c4.9,0.2,11.9,0.4,18.1,0.4C237.8,158,254.4,147.9,254.4,128.4z"/>
		<path fill="#27AAE1" d="M318.3,214.6h19.1V99.7h-38v21.8h-11.3V89.8h110.2v31.6H387V99.7h-38v114.9h19.1v10.3h-49.9V214.6z"/>
		<path fill="#27AAE1" d="M419.5,214.6h19.1V100.1h-19.1V89.8h49.9v10.3h-19.1v114.5h19.1v10.3h-49.9V214.6z"/>
		<path fill="#27AAE1" d="M492.9,200.7c0-7,4.3-11.5,9.4-11.5c5.1,0,8.8,3.7,8.8,8.4c0,3.9-1.8,7-4.1,9.4c4.5,5.1,15.6,9.6,29.6,9.6
			c19.3,0,31-10.5,31-26.3c0-15.2-13.5-22-29.6-28.3c-22.6-8.8-40-17.4-40-40c0-20.3,15.8-34.7,40.2-34.7
			c20.9,0,38.2,12.5,38.2,25.7c0,6.6-4.3,10.3-9.2,10.3c-5.3,0-9.2-3.9-9.2-9c0-3.3,1.8-6.4,3.7-8.4c-3.7-4.7-15.4-8-23.8-8
			c-17.4,0-28.3,9.9-28.3,23.4c0,15.6,13.3,22.2,31.8,29.6c21.3,8.4,37.8,16.8,37.8,38.8c0,23-18.5,37.6-42.9,37.6
			C510,227.2,492.9,212.4,492.9,200.7z"/>
		<path fill="#27AAE1" d="M629.8,214.6h19.1V99.7h-38v21.8h-11.3V89.8h110.2v31.6h-11.3V99.7h-38v114.9h19.1v10.3h-49.9V214.6z"/>
	</g>
	<g>
		<path fill="#939598" d="M763.8,242.7c0-5.7-7-12.2-21.1-19.5c-17.9-9.1-29.9-16.5-36.2-22c-6.3-5.5-9.4-11.6-9.4-18.4
			c0-17.5,8.8-32,26.3-43.5c17.6-11.5,31.9-17.3,43-17.3c7.1,0,12.3,1.2,15.5,3.7c3.2,2.5,4.8,6.7,4.8,12.8c0,2.7-1.2,5.1-3.5,7
			c-2.3,1.9-4.2,2.9-5.5,2.9c-1,0-2.9-0.7-5.7-2c-2.8-1.2-4.7-1.8-5.5-1.8c-4.4,0-13.3,3.2-26.8,9.6c-13.5,6.4-20.2,13.7-20.2,21.8
			c0,4.9,2.4,9.4,7.1,13.4c4.8,4,13.3,8.9,25.6,14.7c9.9,4.8,17.9,9.8,23.8,15.2s8.9,11.8,8.9,19.1c0,13.5-9.3,24-27.8,31.6
			c-18.6,7.6-36.3,11.4-53.2,11.4c-14.3,0-21.4-4.8-21.4-14.5c0-3.3,1.6-5.8,4.8-7.4c3.2-1.6,6.4-2.4,9.7-2.4c1.3,0,3.8,0.4,7.5,1.3
			c3.6,0.9,6,1.3,7.1,1.3c9.8,0,20.2-1.6,31.4-4.9C754.3,251.6,761.2,247.6,763.8,242.7z"/>
	</g>
</g>
<g>
</g>
<g>
</g>
<g>
</g>
<g>
</g>
<g>
</g>
<g>
</g>
</svg>
